<svg xmlns="http://www.w3.org/2000/svg" width="256" height="256" viewBox="0 0 100 100"><rect width="100" height="100" rx="50" fill="#1f03e8"></rect><path fill="#fff" d="M57.72 44.24L57.72 44.24Q57.72 52.48 54.56 58.08Q51.40 63.68 46.04 66.72L46.04 66.72Q49.88 68.48 53.52 69.72Q57.16 70.96 60.36 72.08L60.36 72.08Q60.44 72.56 60.44 72.92Q60.44 73.28 60.44 73.60L60.44 73.60Q60.44 77.60 58.40 79.44Q56.36 81.28 52.84 81.28L52.84 81.28Q49.40 81.28 45.44 79.24Q41.48 77.20 37.16 73.36L37.16 73.36L33.16 69.84L32.76 69.84Q27.40 69.84 22.84 68.20Q18.28 66.56 14.96 63.32Q11.64 60.08 9.76 55.28Q7.88 50.48 7.88 44.24L7.88 44.24Q7.88 38 9.80 33.24Q11.72 28.48 15.08 25.24Q18.44 22 22.96 20.36Q27.48 18.72 32.76 18.72L32.76 18.72Q38.04 18.72 42.60 20.36Q47.16 22 50.52 25.24Q53.88 28.48 55.80 33.24Q57.72 38 57.72 44.24ZM44.76 44.24L44.76 44.24Q44.76 36.64 41.52 32.76Q38.28 28.88 32.76 28.88L32.76 28.88Q27.32 28.88 24.04 32.72Q20.76 36.56 20.76 44.24L20.76 44.24Q20.76 52 24.00 55.84Q27.24 59.68 32.76 59.68L32.76 59.68Q38.28 59.68 41.52 55.84Q44.76 52 44.76 44.24ZM77.64 40.72L77.64 68.56Q76.84 68.80 75.40 69Q73.96 69.20 72.20 69.20L72.20 69.20Q68.60 69.20 67.00 68.04Q65.40 66.88 65.40 63.52L65.40 63.52L65.40 39.12Q65.40 36.88 66.52 35.28Q67.64 33.68 69.64 32.48L69.64 32.48Q72.28 30.88 76.00 29.96Q79.72 29.04 83.80 29.04L83.80 29.04Q92.12 29.04 92.12 34.64L92.12 34.64Q92.12 36 91.72 37.12Q91.32 38.24 90.84 39.04L90.84 39.04Q89.00 38.64 86.36 38.64L86.36 38.64Q84.04 38.64 81.72 39.20Q79.40 39.76 77.64 40.72L77.64 40.72Z"></path></svg>